<svg width="24" height="24" viewBox="0 0 24 24" fill="none" xmlns="http://www.w3.org/2000/svg">
  <path
    d="M4.8 21C4.305 21 3.8811 20.8236 3.5283 20.4708C3.1755 20.118 2.9994 19.6944 3 19.2V8.4C3 7.905 3.1764 7.4811 3.5292 7.1283C3.882 6.7755 4.3056 6.5994 4.8 6.6H7.635L9.3 4.8H14.7V6.6H10.0875L8.445 8.4H4.8V19.2H19.2V9.3H21V19.2C21 19.695 20.8236 20.1189 20.4708 20.4717C20.118 20.8245 19.6944 21.0006 19.2 21H4.8ZM19.785 8.4C19.785 7.23 19.38 6.24 18.57 5.43C17.76 4.62 16.77 4.215 15.6 4.215V3C17.1 3 18.375 3.525 19.425 4.575C20.475 5.625 21 6.9 21 8.4H19.785ZM17.4 8.4C17.4 7.905 17.2236 7.4811 16.8708 7.1283C16.518 6.7755 16.0944 6.5994 15.6 6.6V5.385C16.425 5.385 17.1261 5.6775 17.7033 6.2625C18.2805 6.8475 18.5844 7.56 18.615 8.4H17.4ZM12 17.85C13.125 17.85 14.0814 17.4561 14.8692 16.6683C15.657 15.8805 16.0506 14.9244 16.05 13.8C16.05 12.675 15.6561 11.7186 14.8683 10.9308C14.0805 10.143 13.1244 9.7494 12 9.75C10.875 9.75 9.9186 10.1439 9.1308 10.9317C8.343 11.7195 7.9494 12.6756 7.95 13.8C7.95 14.925 8.3439 15.8814 9.1317 16.6692C9.9195 17.457 10.8756 17.8506 12 17.85ZM12 16.05C11.37 16.05 10.8375 15.8325 10.4025 15.3975C9.9675 14.9625 9.75 14.43 9.75 13.8C9.75 13.17 9.9675 12.6375 10.4025 12.2025C10.8375 11.7675 11.37 11.55 12 11.55C12.63 11.55 13.1625 11.7675 13.5975 12.2025C14.0325 12.6375 14.25 13.17 14.25 13.8C14.25 14.43 14.0325 14.9625 13.5975 15.3975C13.1625 15.8325 12.63 16.05 12 16.05Z"
    fill="black"/>
</svg>
