<svg width="24" height="24" viewBox="0 0 24 24" fill="none" xmlns="http://www.w3.org/2000/svg">
  <path
    d="M4.86364 22H17.1364C17.897 21.9978 18.6258 21.694 19.1626 21.1551C19.6995 20.6162 20.0007 19.8864 20 19.1257V12.9591C20 12.7421 19.9138 12.534 19.7604 12.3805C19.6069 12.2271 19.3988 12.1409 19.1818 12.1409C18.9648 12.1409 18.7567 12.2271 18.6033 12.3805C18.4498 12.534 18.3636 12.7421 18.3636 12.9591V19.1257C18.3647 19.4525 18.2361 19.7664 18.006 19.9985C17.7759 20.2306 17.4632 20.3619 17.1364 20.3636H4.86364C4.53683 20.3619 4.22407 20.2306 3.99398 19.9985C3.76389 19.7664 3.63528 19.4525 3.63636 19.1257V6.87427C3.63528 6.54747 3.76389 6.23358 3.99398 6.0015C4.22407 5.76941 4.53683 5.6381 4.86364 5.63636H11C11.217 5.63636 11.4251 5.55016 11.5785 5.39672C11.732 5.24328 11.8182 5.03518 11.8182 4.81818C11.8182 4.60119 11.732 4.39308 11.5785 4.23964C11.4251 4.0862 11.217 4 11 4H4.86364C4.10298 4.00217 3.37425 4.30603 2.83738 4.84489C2.3005 5.38376 1.99935 6.11361 2 6.87427V19.1257C1.99935 19.8864 2.3005 20.6162 2.83738 21.1551C3.37425 21.694 4.10298 21.9978 4.86364 22Z"
    fill="black"/>
  <path
    d="M9.68956 10.8985L9.01947 13.9714C8.98913 14.1108 8.99432 14.2555 9.03454 14.3924C9.07476 14.5292 9.14873 14.6537 9.24962 14.7545C9.35191 14.8527 9.47634 14.9247 9.61235 14.9645C9.74837 15.0043 9.89197 15.0107 10.031 14.9832L13.0935 14.3106C13.2526 14.2757 13.3982 14.1957 13.5131 14.0802L21.2536 6.33084C21.4902 6.09397 21.6779 5.81275 21.806 5.50324C21.9341 5.19374 22 4.862 22 4.52699C22 4.19198 21.9341 3.86024 21.806 3.55074C21.6779 3.24123 21.4902 2.96001 21.2536 2.72314C20.7685 2.25901 20.1233 2 19.4522 2C18.7812 2 18.136 2.25901 17.6509 2.72314L9.92227 10.4802C9.80627 10.5944 9.7255 10.7396 9.68956 10.8985ZM18.8518 3.92627C19.0134 3.7713 19.2285 3.68479 19.4522 3.68479C19.676 3.68479 19.8911 3.7713 20.0527 3.92627C20.2098 4.08666 20.2978 4.30234 20.2978 4.52699C20.2978 4.75164 20.2098 4.96732 20.0527 5.12771L19.4522 5.72885L18.2513 4.52656L18.8518 3.92627ZM11.293 11.5056L17.0462 5.7314L18.2352 6.92773L12.4795 12.7036L10.955 13.0386L11.293 11.5056Z"
    fill="black"/>
</svg>
