<svg width="24" height="24" viewBox="0 0 24 24" fill="none" xmlns="http://www.w3.org/2000/svg">
  <path
    d="M1.84998 12C1.84998 17.6148 6.38517 22.15 12 22.15C17.6148 22.15 22.15 17.6148 22.15 12C22.15 6.38519 17.6148 1.85 12 1.85C6.38517 1.85 1.84998 6.38519 1.84998 12ZM3.00128 12C3.00128 7.0192 7.01918 3.0013 12 3.0013C16.9808 3.0013 20.9987 7.0192 20.9987 12C20.9987 16.9808 16.9808 20.9987 12 20.9987C7.01918 20.9987 3.00128 16.9808 3.00128 12Z"
    fill="black" stroke="black" stroke-width="0.3"/>
  <path
    d="M11.617 14.5105L11.2341 9.19155V6.97876H12.766V9.19155L12.4256 14.5105H11.617ZM11.2767 17.0212V15.617H12.6809V17.0212H11.2767Z"
    fill="black"/>
</svg>
