<svg width="24" height="24" viewBox="0 0 24 24" fill="none" xmlns="http://www.w3.org/2000/svg">
  <path
    d="M11.9998 8.90906C10.1944 8.90906 8.72713 10.3763 8.72713 12.1818C8.72713 13.9872 10.1944 15.4545 11.9998 15.4545C13.8053 15.4545 15.2725 13.9872 15.2725 12.1818C15.2725 10.3763 13.8052 8.90906 11.9998 8.90906Z"
    fill="#424242"/>
  <path
    d="M12 4C6.54545 4 1.88729 7.39269 0 12.1818C1.88729 16.9709 6.54545 20.3636 12 20.3636C17.46 20.3636 22.1127 16.9709 24 12.1818C22.1127 7.39269 17.46 4 12 4ZM12 17.6363C8.98909 17.6363 6.54544 15.1927 6.54544 12.1818C6.54544 9.17085 8.98909 6.72725 12 6.72725C15.0109 6.72725 17.4546 9.1709 17.4546 12.1818C17.4546 15.1927 15.0109 17.6363 12 17.6363Z"
    fill="#424242"/>
</svg>
