<svg width="24" height="24" viewBox="0 0 24 24" fill="none" xmlns="http://www.w3.org/2000/svg">
  <path
    d="M3.11111 2C3.77778 2 4.22222 2.44444 4.22222 3.11111V4.11111C5.44444 3.55556 7 3.11111 8.66667 3.11111C12 3.11111 12 5.33333 14.2222 5.33333C17.5556 5.33333 18.6667 3.11111 18.6667 3.11111V12C18.6667 12 17.5556 14.2222 14.2222 14.2222C10.8889 14.2222 10.8889 12 8.66667 12C5.33333 12 4.22222 14.2222 4.22222 14.2222V22H2V3.11111C2 2.44444 2.44444 2 3.11111 2ZM13.1111 18.6667V20.8889H22V18.6667H13.1111Z"
    fill="black"/>
</svg>
