<svg width="24" height="24" viewBox="0 0 24 24" fill="none" xmlns="http://www.w3.org/2000/svg"><path d="M11.900 1.666 C 8.470 1.828,5.305 3.631,3.417 6.500 C 2.555 7.810,2.005 9.261,1.754 10.888 C 1.628 11.707,1.628 13.093,1.754 13.912 C 2.121 16.293,3.146 18.336,4.805 19.995 C 6.038 21.228,7.448 22.089,9.124 22.633 C 9.758 22.838,10.176 22.936,10.888 23.046 C 11.707 23.172,13.093 23.172,13.912 23.046 C 16.293 22.679,18.336 21.654,19.995 19.995 C 21.684 18.306,22.706 16.237,23.065 13.780 C 23.116 13.434,23.136 13.049,23.136 12.400 C 23.136 10.868,22.883 9.610,22.295 8.205 C 20.813 4.668,17.401 2.125,13.600 1.724 C 13.149 1.677,12.292 1.647,11.900 1.666 M13.326 3.201 C 15.462 3.412,17.445 4.363,18.969 5.906 C 20.360 7.316,21.220 9.021,21.547 11.020 C 21.648 11.641,21.648 13.159,21.547 13.780 C 21.213 15.824,20.326 17.553,18.873 18.989 C 18.131 19.723,17.414 20.234,16.500 20.681 C 15.584 21.129,14.806 21.380,13.807 21.548 C 13.200 21.650,11.600 21.650,10.993 21.548 C 9.342 21.270,7.822 20.594,6.580 19.587 C 6.189 19.270,5.481 18.559,5.180 18.180 C 2.471 14.779,2.485 9.962,5.214 6.580 C 5.528 6.191,6.239 5.483,6.620 5.180 C 7.981 4.095,9.721 3.377,11.400 3.205 C 11.888 3.155,12.844 3.153,13.326 3.201 M12.205 7.679 C 11.657 7.812,11.470 8.519,11.875 8.924 C 12.097 9.147,12.398 9.212,12.671 9.098 C 12.953 8.980,13.157 8.692,13.159 8.409 C 13.161 8.155,12.982 7.855,12.760 7.741 C 12.620 7.669,12.365 7.640,12.205 7.679 M12.220 11.676 C 11.954 11.742,11.753 11.934,11.682 12.191 C 11.623 12.402,11.626 16.407,11.685 16.619 C 11.744 16.832,11.978 17.060,12.198 17.119 C 12.598 17.227,13.010 16.999,13.118 16.609 C 13.174 16.407,13.174 12.393,13.118 12.191 C 13.070 12.017,12.914 11.819,12.765 11.743 C 12.624 11.671,12.367 11.640,12.220 11.676 " stroke="none" fill-rule="evenodd" fill="black"></path></svg>