<svg width="24" height="24" viewBox="0 0 24 24" fill="none" xmlns="http://www.w3.org/2000/svg">
  <path
    d="M4.77223 2.85718H13.3901C13.8981 2.85718 14.3852 3.04983 14.7443 3.39275C15.1035 3.73568 15.3052 4.20078 15.3052 4.68575V6.51432H13.3901V4.68575H4.77223V19.3143H13.3901V17.4857H15.3052V19.3143C15.3052 19.7993 15.1035 20.2644 14.7443 20.6073C14.3852 20.9502 13.8981 21.1429 13.3901 21.1429H4.77223C4.26432 21.1429 3.77721 20.9502 3.41806 20.6073C3.05891 20.2644 2.85714 19.7993 2.85714 19.3143V4.68575C2.85714 4.20078 3.05891 3.73568 3.41806 3.39275C3.77721 3.04983 4.26432 2.85718 4.77223 2.85718Z"
    fill="black"/>
  <path
    d="M14.4336 15.2823L15.7837 16.5715L20.5714 12L15.7837 7.42862L14.4336 8.71776L16.904 11.0858H7.64455V12.9143H16.904L14.4336 15.2823Z"
    fill="black"/>
</svg>
