<svg width="24" height="24" viewBox="0 0 24 24" fill="none" xmlns="http://www.w3.org/2000/svg">
  <path
    d="M5 17.95V16.25H6.75V10.3C6.75 9.12417 7.11458 8.07923 7.84375 7.1652C8.57292 6.25173 9.52083 5.65333 10.6875 5.37V3.5H13.3125V5.37C14.4792 5.65333 15.4271 6.25173 16.1562 7.1652C16.8854 8.07923 17.25 9.12417 17.25 10.3V16.25H19V17.95H5ZM12 20.5C11.5188 20.5 11.1069 20.3337 10.7645 20.0011C10.4215 19.6679 10.25 19.2675 10.25 18.8H13.75C13.75 19.2675 13.5788 19.6679 13.2364 20.0011C12.8934 20.3337 12.4813 20.5 12 20.5ZM8.5 16.25H15.5V10.3C15.5 9.365 15.1573 8.56458 14.4719 7.89875C13.7865 7.23292 12.9625 6.9 12 6.9C11.0375 6.9 10.2135 7.23292 9.52813 7.89875C8.84271 8.56458 8.5 9.365 8.5 10.3V16.25Z"
    fill="black"/>
</svg>
