<svg width="24" height="24" viewBox="0 0 24 24" fill="none" xmlns="http://www.w3.org/2000/svg"><path d="M15.500 1.267 C 14.580 1.343,13.855 1.587,13.123 2.067 C 12.831 2.259,12.085 2.985,8.086 6.976 C 5.504 9.552,3.227 11.841,3.026 12.062 C 2.104 13.075,1.529 14.286,1.317 15.660 C 1.252 16.076,1.252 17.132,1.316 17.540 C 1.591 19.291,2.446 20.794,3.780 21.868 C 5.406 23.177,7.595 23.663,9.601 23.162 C 10.548 22.924,11.335 22.543,12.169 21.917 C 12.382 21.756,14.198 19.972,17.269 16.904 C 22.227 11.951,22.197 11.982,22.199 11.658 C 22.201 11.331,21.861 10.962,21.526 10.930 C 21.115 10.890,21.417 10.613,16.140 15.879 C 10.967 21.041,11.066 20.948,10.327 21.318 C 9.973 21.495,9.326 21.704,8.900 21.781 C 8.431 21.865,7.572 21.864,7.100 21.780 C 5.498 21.495,4.125 20.487,3.362 19.035 C 2.950 18.252,2.762 17.495,2.761 16.620 C 2.760 15.825,2.940 15.032,3.279 14.340 C 3.531 13.827,3.728 13.531,4.096 13.115 C 4.259 12.931,6.495 10.681,9.066 8.116 C 12.215 4.974,13.818 3.402,13.980 3.298 C 14.585 2.906,15.228 2.734,15.939 2.773 C 16.464 2.802,16.749 2.872,17.183 3.081 C 18.419 3.674,19.149 4.990,18.997 6.350 C 18.930 6.956,18.744 7.435,18.382 7.936 C 18.119 8.301,8.779 17.613,8.574 17.715 C 8.248 17.877,7.778 17.888,7.469 17.741 C 7.222 17.624,7.009 17.407,6.877 17.139 C 6.758 16.899,6.751 16.860,6.768 16.551 C 6.781 16.317,6.812 16.167,6.876 16.040 C 6.941 15.909,8.161 14.665,11.324 11.506 C 13.721 9.112,15.710 7.099,15.743 7.034 C 15.830 6.866,15.824 6.551,15.730 6.370 C 15.631 6.178,15.380 6.000,15.166 5.972 C 14.771 5.919,14.999 5.712,10.307 10.395 C 7.935 12.763,5.912 14.808,5.812 14.940 C 5.262 15.660,5.101 16.598,5.378 17.469 C 5.629 18.257,6.333 18.962,7.137 19.228 C 7.419 19.321,7.526 19.335,7.980 19.336 C 8.371 19.338,8.559 19.320,8.738 19.266 C 9.076 19.163,9.422 18.980,9.700 18.758 C 9.832 18.652,12.092 16.409,14.722 13.773 C 18.387 10.100,19.549 8.913,19.694 8.692 C 20.527 7.420,20.740 5.960,20.296 4.553 C 19.813 3.025,18.561 1.837,16.993 1.421 C 16.695 1.342,15.768 1.219,15.680 1.247 C 15.669 1.251,15.588 1.259,15.500 1.267 " stroke="none" fill-rule="evenodd" fill="black"></path></svg>