<svg width="24" height="24" viewBox="0 0 24 24" fill="none" xmlns="http://www.w3.org/2000/svg">
<path d="M5.925 9.3C6.9375 6.9375 9.3 5.25 12 5.25C15.375 5.25 18.075 7.725 18.6375 10.875H20.8875C20.325 6.4875 16.6125 3 12 3C8.625 3 5.7 4.8 4.2375 7.6125L3 6.375V10.875H7.5L5.925 9.3ZM21 13.125H16.3875L18.075 14.7C17.0625 17.0625 14.7 18.75 11.8875 18.75C8.625 18.75 5.8125 16.275 5.25 13.125H3C3.5625 17.5125 7.3875 21 11.8875 21C15.2625 21 18.1875 19.0875 19.7625 16.3875L21 17.625V13.125Z" fill="black"/>
</svg>
