<svg width="24" height="24" viewBox="0 0 24 24" fill="none" xmlns="http://www.w3.org/2000/svg">
  <path
    d="M5.378 2.058 C 3.674 2.323,2.320 3.686,2.058 5.400 C 1.972 5.967,1.972 18.033,2.058 18.600 C 2.322 20.329,3.671 21.678,5.400 21.942 C 5.967 22.028,18.033 22.028,18.600 21.942 C 20.326 21.678,21.678 20.326,21.942 18.600 C 22.028 18.033,22.028 5.967,21.942 5.400 C 21.716 3.923,20.692 2.703,19.268 2.215 C 18.632 1.997,18.739 2.000,11.960 2.004 C 7.166 2.007,5.625 2.020,5.378 2.058 M18.492 4.060 C 18.852 4.153,19.118 4.310,19.404 4.596 C 19.690 4.882,19.847 5.148,19.940 5.508 C 20.030 5.853,20.030 18.147,19.940 18.492 C 19.847 18.852,19.690 19.118,19.404 19.404 C 19.118 19.690,18.852 19.847,18.492 19.940 C 18.147 20.030,5.853 20.030,5.508 19.940 C 5.148 19.847,4.882 19.690,4.596 19.404 C 4.310 19.118,4.153 18.852,4.060 18.492 C 3.970 18.147,3.970 5.853,4.060 5.508 C 4.153 5.148,4.310 4.882,4.596 4.596 C 4.876 4.316,5.146 4.154,5.491 4.062 C 5.814 3.974,18.158 3.973,18.492 4.060 M13.650 11.050 L 10.080 14.620 8.410 12.950 L 6.739 11.280 6.190 11.830 L 5.640 12.381 7.870 14.610 L 10.100 16.840 14.230 12.710 L 18.360 8.579 17.810 8.030 C 17.507 7.727,17.250 7.480,17.239 7.480 C 17.229 7.480,15.613 9.086,13.650 11.050 "
    fill="#252525" stroke="none" fill-rule="evenodd"></path>
</svg>
