<svg width="24" height="24" viewBox="0 0 24 24" fill="none" xmlns="http://www.w3.org/2000/svg">
  <path fill-rule="evenodd" clip-rule="evenodd"
        d="M7.8373 4.93306C8.80679 3.9497 10.2151 3.125 12.0104 3.125C13.8026 3.125 15.2108 3.93951 16.1822 4.92053C16.9126 5.65825 17.4364 6.53007 17.706 7.30414C18.6328 7.47044 19.7138 7.93973 20.6358 8.68069C21.8234 9.63521 22.8284 11.1082 22.8732 13.0969C22.9168 15.0313 22.1524 16.5314 21.1718 17.5521C20.2221 18.5407 19.0083 19.1391 18.051 19.1964L18.0249 19.1979H14.6918V17.4479H17.9684C18.3882 17.4132 19.196 17.0828 19.9098 16.3397C20.6054 15.6157 21.1556 14.5536 21.1237 13.1363C21.093 11.7733 20.4184 10.7512 19.5395 10.0447C18.6331 9.31626 17.5915 8.99173 17.0076 8.98638L16.2693 8.9796L16.1518 8.25074C16.074 7.76878 15.6802 6.90079 14.9386 6.15186C14.2174 5.42351 13.2347 4.875 12.0104 4.875C10.7892 4.875 9.8066 5.42822 9.08349 6.16168C8.33988 6.91592 7.94572 7.78558 7.86855 8.25372L7.76649 8.87291L7.14728 8.9748C6.33169 9.10901 5.25055 9.41491 4.38815 10.1067C3.56575 10.7664 2.875 11.8275 2.875 13.6529C2.875 14.8033 3.44676 15.7495 4.21157 16.4333C5.01021 17.1473 5.87267 17.4479 6.24548 17.4479H9.41842V19.1979H6.24548C5.29995 19.1979 4.03968 18.6271 3.04516 17.7379C2.01681 16.8185 1.125 15.4297 1.125 13.6529C1.125 11.2998 2.05424 9.73542 3.29313 8.74162C4.27274 7.95582 5.40094 7.56131 6.29893 7.35803C6.56344 6.58012 7.09312 5.68788 7.8373 4.93306Z"
        fill="black"/>
  <path
    d="M12.7499 12.8709L12.7499 20L11.2499 20L11.2499 12.8709L8.5 15.6208L7.4395 14.5603L11.9999 9.99988L16.4395 14.4395L15.379 15.5L12.7499 12.8709Z"
    fill="black"/>
</svg>
